<svg xmlns="http://www.w3.org/2000/svg" viewBox="0 0 100 100" fill="none">
  <rect width="100" height="100" fill="#ffffff"/>
  <!-- السحابة outline -->
  <path d="M20 58 C8 58,2 49,2 41 C2 27,11 17,24 15 C28 7,37 2,49 2 C63 2,74 11,75 23 C80 21,86 25,87 32 C89 41,84 51,74 53 C72 57,74 63,72 67"
    stroke="#10b981" stroke-width="7" stroke-linecap="round" stroke-linejoin="round" fill="none"/>
  <!-- المطر 1 - يسار - أطول -->
  <rect x="28" y="56" width="8" height="26" rx="4" fill="#10b981"/>
  <!-- المطر 2 - وسط - متوسط -->
  <rect x="44" y="58" width="8" height="22" rx="4" fill="#10b981"/>
  <!-- المطر 3 - يمين - أقصر -->
  <rect x="60" y="60" width="8" height="18" rx="4" fill="#10b981"/>
</svg>